<svg width="943" height="355" viewBox="0 0 943 355" fill="none" xmlns="http://www.w3.org/2000/svg">
    <path fill-rule="evenodd" clip-rule="evenodd" d="M270.932 275.13C275.985 271.962 284.603 270.378 296.788 270.378H378.368V268.003L367.224 263.252C349.986 255.967 330.371 241.872 308.379 220.967C297.977 211.148 289.061 198.161 281.631 182.007C274.201 165.854 270.486 148.75 270.486 130.695C270.486 96.804 281.631 66.7135 303.921 40.4239C326.211 13.8176 355.336 0.51445 391.296 0.51445C425.657 0.51445 453.811 12.7165 475.757 37.1207C497.703 12.7165 525.857 0.51445 560.218 0.51445C596.178 0.51445 625.303 13.8176 647.593 40.4239C669.883 66.7135 681.028 96.804 681.028 130.695C681.028 148.75 677.313 165.854 669.883 182.007C662.453 198.161 653.537 211.148 643.135 220.967C621.143 241.872 601.528 255.967 584.291 263.252L573.146 268.003V270.378H654.726C666.911 270.378 675.53 271.962 680.582 275.13C685.931 277.98 689.498 282.573 691.281 288.908C693.064 294.926 693.956 303.003 693.956 313.139C693.956 322.958 692.915 330.876 690.835 336.894C689.052 342.912 685.931 347.03 681.473 349.247C674.935 353.048 665.722 354.949 653.834 354.949H479.529C478.25 354.949 476.993 354.888 475.757 354.765C474.521 354.888 473.264 354.949 471.985 354.949H297.68C285.792 354.949 276.579 353.048 270.041 349.247C265.583 347.03 262.462 342.912 260.679 336.894C258.599 330.876 257.558 322.958 257.558 313.139C257.558 303.003 258.45 294.926 260.233 288.908C262.016 282.573 265.583 277.98 270.932 275.13ZM475.757 244.64C482.42 238.589 489.621 233.074 497.361 228.093C513.112 217.641 528.864 207.505 544.615 197.686C560.366 187.551 573.74 176.148 584.736 163.478C596.03 150.808 601.677 137.347 601.677 123.094C601.677 120.243 600.636 116.284 598.556 111.216C596.476 105.831 594.098 101.555 591.423 98.3877C589.046 94.9035 585.182 91.7361 579.832 88.8854C574.483 86.0347 567.053 84.6094 557.543 84.6094C548.033 84.6094 539.711 88.4103 532.578 96.0121C525.743 103.297 521.879 110.582 520.988 117.867L519.205 128.795V131.646C519.205 138.614 518.907 143.84 518.313 147.324C518.016 150.808 516.678 154.768 514.301 159.202C509.843 166.804 498.252 170.605 479.529 170.605C478.239 170.605 476.982 170.582 475.757 170.535C474.532 170.582 473.275 170.605 471.985 170.605C453.262 170.605 441.671 166.804 437.213 159.202C434.836 154.768 433.498 150.808 433.201 147.324C432.607 143.84 432.31 138.614 432.31 131.646V128.795L430.526 117.867C429.635 110.582 425.771 103.297 418.936 96.0121C411.803 88.4103 403.482 84.6094 393.971 84.6094C384.461 84.6094 377.031 86.0347 371.682 88.8854C366.332 91.7361 362.469 94.9035 360.091 98.3877C357.416 101.555 355.039 105.831 352.958 111.216C350.878 116.284 349.838 120.243 349.838 123.094C349.838 137.347 355.484 150.808 366.778 163.478C377.774 176.148 391.148 187.551 406.899 197.686C422.651 207.505 438.402 217.641 454.153 228.093C461.893 233.074 469.094 238.589 475.757 244.64ZM148.528 177.732C148.528 219.9 115.385 254.085 74.5006 254.085C33.6164 254.085 0.473267 219.9 0.473267 177.732C0.473267 135.563 33.6164 101.379 74.5006 101.379C115.385 101.379 148.528 135.563 148.528 177.732ZM868.416 254.085C909.301 254.085 942.444 219.9 942.444 177.732C942.444 135.563 909.301 101.379 868.416 101.379C827.532 101.379 794.389 135.563 794.389 177.732C794.389 219.9 827.532 254.085 868.416 254.085Z" fill="#F68E71"/>
</svg>
